<svg xmlns="http://www.w3.org/2000/svg" viewBox="0 0 1807.85 1604.31"><defs><style>.cls-1,.cls-10,.cls-11,.cls-12,.cls-13,.cls-14,.cls-15,.cls-2,.cls-3,.cls-4,.cls-5,.cls-6,.cls-7,.cls-8,.cls-9{fill:none;stroke-miterlimit:10;}.cls-1,.cls-15{stroke:#666668;}.cls-1{stroke-width:3px;}.cls-10,.cls-11,.cls-12,.cls-13,.cls-14,.cls-2,.cls-3,.cls-4,.cls-5,.cls-6,.cls-7,.cls-8,.cls-9{stroke:#545354;}.cls-3{stroke-dasharray:8.03 2.01;}.cls-4{stroke-dasharray:7.95 1.99;}.cls-5{stroke-dasharray:8.16 2.04;}.cls-6{stroke-dasharray:8.09 2.02;}.cls-7{stroke-dasharray:8.05 2.01;}.cls-8{stroke-dasharray:8.04 2.01;}.cls-9{stroke-dasharray:8.01 2;}.cls-10{stroke-dasharray:8 2;}.cls-11{stroke-dasharray:8 2;}.cls-12{stroke-dasharray:8.04 2.01;}.cls-13{stroke-dasharray:7.97 1.99;}.cls-14{stroke-dasharray:8.1 2.02;}.cls-16{fill:#ffe633;}.cls-17{fill:#f900be;}.cls-18{fill:#20ef87;}.cls-19{fill:#f48282;}.cls-20{fill:#f70808;}.cls-21{fill:#2d44f2;}.cls-22{fill:#d3f414;}.cls-23{fill:#00e7ff;}.cls-24{fill:#b3a6ff;}.cls-25{fill:#737fff;}.cls-26{fill:#099;}.cls-27{fill:#f76b96;}.cls-28{fill:#d69b93;}</style></defs><g id="USA_Wyoming_Cheyenne_gblock_cloud_사본" data-name="USA_Wyoming_Cheyenne_gblock cloud 사본"><path class="cls-1" d="M177,335.73S261.65,155.07,478.29,149c0,0,137.58-15.56,228.47,186.76,0,0,71.59,92.14,72.22,204.19,0,0,3.11-113.92,85.91-202.94,0,0,88.4-188.29,267.06-188.29,0,0,361.69-7.81,565.26,186.42,0,0,184.89,93.38,184.89,204.81,0,0,5,79.68-49.18,203.57,0,0-46.06,188-154.38,188,0,0-133.23,14.94-225.36-187.38,0,0-69.72-89.72-73.46-203.91,0,0,5.6,103.68-72.84,204.53,0,0-64.74,177.3-225.35,187,0,0-98.36,4.73-153.14-187,0,0-49.81-99.66-48.56-204.53,0,0-13.08,145.39-48.56,202,0,0-46.69,187.9-151.28,189.51,0,0-91.51,11.57-152.52-187,0,0-49.8-115.79-48.55-204.81,0,0,11.83,80.31-73.46,204.19,0,0-61,181.3-228.47,187.77,0,0-49.8-2.25-72.84-184.66,0,0-27.39-94-26.77-216C77.38,531.21,78.63,431.6,177,335.73Z" transform="translate(-75.87 192.52)"/><polyline class="cls-2" points="39.46 614.16 35.46 614.16 39.46 614.16"/><line class="cls-3" x1="41.47" y1="614.16" x2="673.22" y2="614.16"/><polyline class="cls-2" points="674.23 614.16 678.23 614.16 674.23 614.16"/><line class="cls-3" x1="672.22" y1="614.16" x2="40.47" y2="614.16"/><polyline class="cls-2" points="14.35 850.31 10.35 850.31 14.35 850.31"/><line class="cls-4" x1="16.34" y1="850.31" x2="372.98" y2="850.31"/><polyline class="cls-2" points="373.98 850.31 377.98 850.31 373.98 850.31"/><line class="cls-4" x1="371.99" y1="850.31" x2="15.35" y2="850.31"/><polyline class="cls-2" points="55.97 1053.67 51.97 1053.67 55.97 1053.67"/><line class="cls-5" x1="58.01" y1="1053.67" x2="250.69" y2="1053.67"/><polyline class="cls-2" points="251.71 1053.67 255.71 1053.67 251.71 1053.67"/><line class="cls-5" x1="249.67" y1="1053.67" x2="56.99" y2="1053.67"/><polyline class="cls-2" points="425.6 850.31 421.6 850.31 425.6 850.31"/><line class="cls-6" x1="427.62" y1="850.31" x2="780.36" y2="850.31"/><polyline class="cls-2" points="781.37 850.31 785.37 850.31 781.37 850.31"/><line class="cls-6" x1="779.35" y1="850.31" x2="426.61" y2="850.31"/><polyline class="cls-2" points="507.39 1053.67 503.39 1053.67 507.39 1053.67"/><line class="cls-7" x1="509.4" y1="1053.67" x2="699.63" y2="1053.67"/><polyline class="cls-2" points="700.64 1053.67 704.64 1053.67 700.64 1053.67"/><line class="cls-7" x1="698.62" y1="1053.67" x2="508.39" y2="1053.67"/><polyline class="cls-2" points="206.09 410.39 202.09 410.39 206.09 410.39"/><line class="cls-8" x1="208.1" y1="410.39" x2="548.62" y2="410.39"/><polyline class="cls-2" points="549.63 410.39 553.63 410.39 549.63 410.39"/><line class="cls-8" x1="547.62" y1="410.39" x2="207.09" y2="410.39"/><polyline class="cls-2" points="885.52 410.39 881.52 410.39 885.52 410.39"/><line class="cls-9" x1="887.52" y1="410.39" x2="1427.16" y2="410.39"/><polyline class="cls-2" points="1428.16 410.39 1432.16 410.39 1428.16 410.39"/><line class="cls-9" x1="1426.15" y1="410.39" x2="886.52" y2="410.39"/><polyline class="cls-2" points="737.24 614.16 733.24 614.16 737.24 614.16"/><line class="cls-10" x1="739.24" y1="614.16" x2="1738.17" y2="614.16"/><polyline class="cls-2" points="1739.17 614.16 1743.17 614.16 1739.17 614.16"/><line class="cls-10" x1="1737.17" y1="614.16" x2="738.24" y2="614.16"/><polyline class="cls-2" points="824.59 850.31 820.59 850.31 824.59 850.31"/><line class="cls-11" x1="826.59" y1="850.31" x2="1275.66" y2="850.31"/><polyline class="cls-2" points="1276.66 850.31 1280.66 850.31 1276.66 850.31"/><line class="cls-11" x1="1274.66" y1="850.31" x2="825.59" y2="850.31"/><polyline class="cls-2" points="907.7 1053.67 903.7 1053.67 907.7 1053.67"/><line class="cls-12" x1="909.71" y1="1053.67" x2="1149.93" y2="1053.67"/><polyline class="cls-2" points="1150.93 1053.67 1154.93 1053.67 1150.93 1053.67"/><line class="cls-12" x1="1148.92" y1="1053.67" x2="908.71" y2="1053.67"/><polyline class="cls-2" points="1333.88 850.31 1329.88 850.31 1333.88 850.31"/><line class="cls-13" x1="1335.87" y1="850.31" x2="1783.05" y2="850.31"/><polyline class="cls-2" points="1784.05 850.31 1788.05 850.31 1784.05 850.31"/><line class="cls-13" x1="1782.06" y1="850.31" x2="1334.88" y2="850.31"/><polyline class="cls-2" points="1457.67 1053.67 1453.67 1053.67 1457.67 1053.67"/><line class="cls-14" x1="1459.7" y1="1053.67" x2="1701.55" y2="1053.67"/><polyline class="cls-2" points="1702.56 1053.67 1706.56 1053.67 1702.56 1053.67"/><line class="cls-14" x1="1700.54" y1="1053.67" x2="1458.68" y2="1053.67"/><path class="cls-15" d="M487,614.62h0Z" transform="translate(-75.87 192.52)"/><path class="cls-15" d="M886.56,614.62h0Z" transform="translate(-75.87 192.52)"/><path class="cls-15" d="M327.52,186.74h0Z" transform="translate(-75.87 192.52)"/><path class="cls-15" d="M245.76,245.26h0Z" transform="translate(-75.87 192.52)"/><path class="cls-15" d="M189.24,314.15h0Z" transform="translate(-75.87 192.52)"/><path class="cls-15" d="M131.06,389.68h0Z" transform="translate(-75.87 192.52)"/><path class="cls-15" d="M92.08,464.39h0Z" transform="translate(-75.87 192.52)"/><path class="cls-15" d="M81.14,614.62h0Z" transform="translate(-75.87 192.52)"/><path class="cls-15" d="M91.46,690.16h0Z" transform="translate(-75.87 192.52)"/><path class="cls-15" d="M106.54,764.86h0Z" transform="translate(-75.87 192.52)"/><path class="cls-15" d="M120,834.17h0Z" transform="translate(-75.87 192.52)"/><path class="cls-15" d="M140.15,891.86h0Z" transform="translate(-75.87 192.52)"/><path class="cls-15" d="M507.31,690.16h0Z" transform="translate(-75.87 192.52)"/><path class="cls-15" d="M534,764.86h0Z" transform="translate(-75.87 192.52)"/><path class="cls-15" d="M563.37,834.17h0Z" transform="translate(-75.87 192.52)"/><path class="cls-15" d="M603.18,891.86h0Z" transform="translate(-75.87 192.52)"/><path class="cls-15" d="M999.69,186.74h0Z" transform="translate(-75.87 192.52)"/><path class="cls-15" d="M929.15,245.26h0Z" transform="translate(-75.87 192.52)"/><path class="cls-15" d="M877.44,314.15h0Z" transform="translate(-75.87 192.52)"/><path class="cls-15" d="M825.67,389.68h0Z" transform="translate(-75.87 192.52)"/><path class="cls-15" d="M793.06,464.39h0Z" transform="translate(-75.87 192.52)"/><path class="cls-15" d="M906.42,690.16h0Z" transform="translate(-75.87 192.52)"/><path class="cls-15" d="M934.52,764.86h0Z" transform="translate(-75.87 192.52)"/><path class="cls-15" d="M963.38,834.17h0Z" transform="translate(-75.87 192.52)"/><path class="cls-15" d="M1004.44,891.86h0Z" transform="translate(-75.87 192.52)"/><path class="cls-15" d="M1391.21,614.62h0Z" transform="translate(-75.87 192.52)"/><path class="cls-15" d="M1420.42,690.16h0Z" transform="translate(-75.87 192.52)"/><path class="cls-15" d="M1463.15,764.86h0Z" transform="translate(-75.87 192.52)"/><path class="cls-15" d="M1506.35,834.17h0Z" transform="translate(-75.87 192.52)"/><path class="cls-15" d="M1564.36,891.86h0Z" transform="translate(-75.87 192.52)"/><path class="cls-15" d="M77.37,539.51h0Z" transform="translate(-75.87 192.52)"/><path class="cls-15" d="M1081.53,931.74c-55.2,0-77.09-189.7-77.09-189.7-24-83.84-24.64-202.53-24.64-202.53-3.37-95.87,42-225.36,42-225.36,43.17-179.7,108.31-165.54,108.31-165.54" transform="translate(-75.87 192.52)"/><path class="cls-15" d="M288.84,245.26s-38.39,47.1-56.86,91.3c0,0-47.31,59.35-67.65,127.83,0,0-11.2,31.95-11.2,75.53,0,0,1.45,112.47,3.63,150.24,0,0,5.6,125.44,6.85,144" transform="translate(-75.87 192.52)"/><path class="cls-15" d="M173,930.78s12.1,1.75,18.33-18.59c0,0,13.38-46.79,16.49-78L215,764.86l6-74.7s4.57-36.63,5.81-75.54l1.56-74.36s.31-63.21,20.54-118.62c0,0,23-59.76,38.29-81.55,0,0,14.32-47.11,46.38-94.83,0,0,51.94-93.64,142.23-96.21" transform="translate(-75.87 192.52)"/><path class="cls-15" d="M376.82,245.26s-19.19,40.36-24.8,68.89c0,0-7.57,31.13-15.45,47.1,0,0-11.63,31.13-17.85,60.39,0,0-4.57,11-9.13,42.75,0,0-4.36,31.75-5.6,75.12,0,0-4.15,113.09-17,150.65,0,0-12.08,44.82-16.93,74.7,0,0-15.76,65.78-18.3,69.31" transform="translate(-75.87 192.52)"/><path class="cls-15" d="M552.79,245.26s12.45,46.89,17,68.89c0,0,11.62,52.71,17.43,75.53,0,0,7.47,27.81,13.28,74.71,0,0,4.15,50.47,4.15,76.07,0,0-.42,59.22,1.66,74.16,0,0,5,62.67,7.88,75.54,0,0,8.3,53.54,10.79,74.7,0,0,8.31,61,10,69.31" transform="translate(-75.87 192.52)"/><path class="cls-15" d="M1130.07,148.71s-93.36-6.79-174.71,96.55c0,0-27,29.88-52.71,90.89,0,0-48.14,66.81-62.66,128.24a320.09,320.09,0,0,0-10.38,75.12s-.83,75.53-12,118.28c0,0-13.75,58.51-24.51,84.25,0,0-26.53,173.58-113.07,189.71" transform="translate(-75.87 192.52)"/><path class="cls-15" d="M999.69,245.26s-21.59,32.37-42.3,93.79c0,0-30.25,53.95-44.78,125.34,0,0-22.41,93.79,7.06,193.4,0,0,16.19,62.25,25.32,79.27,0,0,18.67,77.19,32.78,97.11" transform="translate(-75.87 192.52)"/><path class="cls-15" d="M1086.92,245.26s-17.43,82.17-20.75,144.42c0,0-12.27,81.76-11.32,151.07,0,0,2.19,181.37,7.17,224.11,0,0,2.91,56.86,2.91,69.31" transform="translate(-75.87 192.52)"/><path class="cls-15" d="M1130.07,148.35s1.77,434.32-1.6,466.27c0,0-2.42,56-4.35,75.54,0,0-11.15,99.19-15,144,0,0-9.29,84.33-27.55,97.57" transform="translate(-75.87 192.52)"/><path class="cls-15" d="M1173.66,245.26s26.56,148.16,29.47,219.13c0,0,8.71,146.5-14.73,225.77,0,0-27.6,110-34.24,144" transform="translate(-75.87 192.52)"/><path class="cls-15" d="M1130.07,148.35s66-9.75,109.17,165.8c0,0,22.41,79.68,28.63,107.49,0,0,30.71,126.17-4.15,236.15,0,0-16.18,53.53-31.12,85.08,0,0-43.17,179.36-151.07,188.87" transform="translate(-75.87 192.52)"/><path class="cls-15" d="M1262.06,245.26s22.13,39,41.78,96.7c0,0,37.91,75.94,44.55,122.43,0,0,35.69,134.88-56.86,274.33,0,0-20.15,50.6-50.22,95.45" transform="translate(-75.87 192.52)"/><path class="cls-15" d="M1130.07,148.61s127.43-12.09,218.32,165.54a584.15,584.15,0,0,0,42.82,75.53s32.3,49.25,39.77,150.58c0,0-2.91,102.17,58.93,201,0,0,48.56,173.47,188.63,190.28" transform="translate(-75.87 192.52)"/><path class="cls-15" d="M1130.07,148.25s193.42-10.9,327.47,165.9a188,188,0,0,0,30.29,38.6s88.4,80.51,93.38,186.76c0,0-1.66,60.17,8.3,118.28,0,0,12.87,71,18.26,107.07,0,0,25.74,161.16,70.77,166.63" transform="translate(-75.87 192.52)"/><path class="cls-15" d="M1349.63,245.26s28.19,23.65,64.94,91.3c0,0,89.86,90.89,91.11,203.36,0,0-.42,112.89,42.33,202.53,0,0,14.94,63.08,31.13,91.72" transform="translate(-75.87 192.52)"/><path class="cls-15" d="M1436.79,245.26s48.14,34.86,91.72,91.3c0,0,127,92.55,127.41,203.36,0,0,5,234.49,10.79,294.25" transform="translate(-75.87 192.52)"/><path class="cls-15" d="M1130.07,148.44s198.6-3,349.88,96.82c0,0,51,28.22,106.45,91.72,0,0,143.18,85.07,146.3,202.94,0,0-10.59,216.85-22.42,294.25,0,0-8.09,91.85-31.74,97.32" transform="translate(-75.87 192.52)"/><path class="cls-15" d="M1524.77,245.26s87.47,51.56,116.73,90.47c0,0,166.21,96.39,165,204,0,0,.93,104.8-28.33,196.93,0,0-14.32,74.91-24.28,97.53" transform="translate(-75.87 192.52)"/><path class="cls-15" d="M475.79,149.05s-17.57.75-35.31,37.69c0,0-15.41,34.65-19.77,58.52,0,0-9.49,36.78-11.67,54.05,0,0-6.38,41.09-9.18,52.14,0,0-4.67,18.1-7.63,38.23,0,0-8.09,51.31-10,74.71,0,0-3.58,33.3-3.58,75.12l-.78,34.65s-2.8,25.37-6.22,40.46c0,0-5.3,30.77-9.34,43.17,0,0-19.92,63-31.13,84.45,0,0-4.36,11.31-7.47,22.62,0,0-46.12,163.87-146.76,167" transform="translate(-75.87 192.52)"/><path class="cls-15" d="M465.22,245.26S451.61,486,453.85,539.92c0,0-.47,80.93-23.6,117.87,0,0-13.59,37.76-40.15,82.17,0,0-17.1,44.93-50.21,94.21" transform="translate(-75.87 192.52)"/><path class="cls-15" d="M478.29,149S563.17,134,624.59,314.15c0,0,8.3,32.79,20.75,56.86,0,0,22.83,58.1,27,93.38,0,0,7.69,35.69,7.37,75.12l.3,392.24c-80.72-12-108.94-166.89-108.94-166.89-7.47-30.29-22.41-74.7-22.41-74.7-19.09-67.65-19.51-150.24-19.51-150.24,0-44.82-3.73-118.28-3.73-118.28L508,245.26c-10.79-105.42-32.14-96.21-32.14-96.21" transform="translate(-75.87 192.52)"/><path class="cls-15" d="M639.53,245.26s14.94,16.6,38.6,68.89c0,0,9.54,22.83,20.33,40.26,0,0,23.24,39.84,33.21,67.23,0,0,23.29,48.14,22.43,118.28,0,0,.81,49.39-5.42,117.87,0,0-12.45,87.57-14.94,107.07,0,0-7.47,58.94-11.21,71.39" transform="translate(-75.87 192.52)"/></g><g id="레이어_6" data-name="레이어 6"><path class="cls-16" d="M641.82,217.86l152.39,23,7.34,9.88-1.28,10.84,30.61,6.06v14.66l8.29,2.87-11.8,102.34s-7.33,4.78-13.07,5.42l-94.69,1-3.19,3.82H712l-3.51-2.87-8.28,5.74-7.66,8.29-5.42,10.52-1.27,6.06-30,7.33-6.06-8.29,6.06-39.21-12.11-1L638,377,640.23,354l-7-2.24-2.87,1.6-7-8.29Z" transform="translate(-75.87 192.52)"/></g><g id="레이어_1" data-name="레이어 1"><polygon class="cls-17" points="1662.96 1211.93 1679.7 1176.88 1774.92 1022.02 1583.96 895.41 1561.99 930.46 1586.84 946.42 1488.49 1103.89 1662.96 1211.93"/></g><g id="레이어_12" data-name="레이어 12"><polygon class="cls-18" points="811.44 893.67 854.9 950.76 940.96 897.08 882.16 832.32 811.44 893.67"/><path class="cls-19" d="M153.86,729l57.77,9.46-.9,11.37,28.12,3.84L218.4,905.5s-10,11-28.63,10.73l-47-41.66s-3.58-2.56-3.06-8.18Z" transform="translate(-75.87 192.52)"/><polygon class="cls-20" points="317.27 1530.91 397.94 1514.03 410.14 1522.47 416.7 1530.91 416.7 1543.11 410.84 1547.56 385.51 1547.56 375.67 1547.56 378.95 1596.34 370.98 1604.31 360.66 1604.31 354.09 1596.34 340.02 1595.4 333.92 1592.59 336.27 1604.31 326.89 1601.5 321.26 1595.87 317.51 1591.65 317.27 1530.91"/></g><g id="레이어_13" data-name="레이어 13"><polygon class="cls-21" points="459.49 949.33 533.16 974.36 548.57 931.99 576.98 941.62 647.76 742.28 616.94 730.25 622.72 716.28 550.01 690.28 459.49 949.33"/></g><g id="레이어_14" data-name="레이어 14"><polygon class="cls-22" points="774.07 1306.29 890.15 1294.52 897.99 1366.68 983.48 1358.84 988.97 1421.58 791.32 1438.84 774.07 1306.29"/><polygon class="cls-23" points="515.67 999.11 488.7 997.67 490.63 981.52 493.61 979.22 516.54 981.16 515.67 999.11"/><polygon class="cls-24" points="210.76 377.94 189.02 421 308.28 455.87 396.76 282.79 290.09 225.42 256.94 288.93 327.33 327.89 284.92 409.05 224.22 390.97 228.09 384.51 210.76 377.94"/><polygon class="cls-25" points="1302.04 610.51 1344.98 649.12 1379.25 618.39 1408.4 644 1358.17 690.28 1332.17 665.86 1334.54 663.5 1319.96 649.71 1288.84 683.98 1222.26 621.74 1240.38 602.04 1278.2 637.1 1302.04 610.51"/><polygon class="cls-26" points="1187.92 203.15 1249.58 154.8 1276.64 189.4 1320.99 154.8 1296.6 120.2 1343.17 87.82 1330.31 37.26 1300.14 0 1153.77 145.49 1155.99 168.55 1187.92 203.15"/><polygon class="cls-27" points="1018.47 634.23 1048.5 620.2 1070.91 609.68 1081.28 606.02 1081.28 604.5 1108.42 598.55 1115.28 628.43 1017.55 681.49 1018.47 634.23"/><polygon class="cls-28" points="1327.89 1124.4 1324.87 1149.65 1341.45 1152.67 1342.59 1147.77 1348.62 1148.9 1383.67 1144 1384.8 1134.58 1327.89 1124.4"/></g></svg>