<svg id="레이어_3_사본" data-name="레이어 3 사본" xmlns="http://www.w3.org/2000/svg" viewBox="0 0 1280 1024"><defs><style>.cls-1,.cls-10,.cls-11,.cls-12,.cls-13,.cls-14,.cls-15,.cls-16,.cls-2,.cls-27,.cls-3,.cls-4,.cls-5,.cls-6,.cls-7,.cls-8,.cls-9{fill:none;}.cls-16,.cls-2{stroke:#666668;}.cls-10,.cls-11,.cls-12,.cls-13,.cls-14,.cls-15,.cls-16,.cls-2,.cls-27,.cls-3,.cls-4,.cls-5,.cls-6,.cls-7,.cls-8,.cls-9{stroke-miterlimit:10;}.cls-2{stroke-width:2px;}.cls-10,.cls-11,.cls-12,.cls-13,.cls-14,.cls-15,.cls-3,.cls-4,.cls-5,.cls-6,.cls-7,.cls-8,.cls-9{stroke:#545354;}.cls-4{stroke-dasharray:8.06 2.02;}.cls-5{stroke-dasharray:8.12 2.03;}.cls-6{stroke-dasharray:8.03 2.01;}.cls-7{stroke-dasharray:8.03 2.01;}.cls-8{stroke-dasharray:7.93 1.98;}.cls-9{stroke-dasharray:8.09 2.02;}.cls-10{stroke-dasharray:8 2;}.cls-11{stroke-dasharray:7.96 1.99;}.cls-12{stroke-dasharray:7.93 1.98;}.cls-13{stroke-dasharray:8.16 2.04;}.cls-14{stroke-dasharray:7.9 1.97;}.cls-15{stroke-dasharray:8.22 2.06;}.cls-17{fill:#ffe633;}.cls-18{fill:#f900be;}.cls-19{fill:#20ef87;}.cls-20{fill:#2d44f2;}.cls-21{fill:#d3f414;}.cls-22{fill:#00e7ff;}.cls-23{fill:#b3a6ff;}.cls-24{fill:#737fff;}.cls-25{fill:#099;}.cls-26{fill:#f76b96;}.cls-27{font-size:150px;stroke:red;stroke-width:4px;font-family:NotoSansKR-Medium-KSCpc-EUC-H, Noto Sans KR;}.cls-28{letter-spacing:-0.01em;}.cls-29{letter-spacing:-0.02em;}</style></defs><rect class="cls-1" width="1280" height="1024"/><path class="cls-2" d="M89.67,418.47s58.4-124.63,207.85-128.84c0,0,94.91-10.73,157.61,128.84,0,0,49.39,63.56,49.82,140.86,0,0,2.15-78.59,59.27-140,0,0,61-129.89,184.24-129.89,0,0,249.51-5.39,389.94,128.6,0,0,127.55,64.42,127.55,141.29,0,0,3.44,55-33.92,140.44,0,0-31.78,129.69-106.51,129.69,0,0-91.9,10.31-155.46-129.26,0,0-48.1-61.9-50.68-140.68,0,0,3.86,71.53-50.25,141.11,0,0-44.66,122.3-155.46,129,0,0-67.86,3.27-105.65-129,0,0-34.35-68.76-33.5-141.1,0,0-9,100.3-33.49,139.38,0,0-32.21,129.62-104.36,130.73,0,0-63.13,8-105.22-129,0,0-34.36-79.88-33.5-141.3,0,0,8.16,55.4-50.67,140.87,0,0-42.09,125.07-157.61,129.53,0,0-34.36-1.56-50.25-127.39,0,0-18.9-64.85-18.47-149C21,553.32,21.81,484.61,89.67,418.47Z"/><polyline class="cls-3" points="48.37 477.74 44.37 477.74 48.37 477.74"/><line class="cls-4" x1="50.39" y1="477.74" x2="482.78" y2="477.74"/><polyline class="cls-3" points="483.79 477.74 487.79 477.74 483.79 477.74"/><line class="cls-4" x1="481.77" y1="477.74" x2="49.38" y2="477.74"/><polyline class="cls-3" points="31.05 640.64 27.05 640.64 31.05 640.64"/><line class="cls-5" x1="33.08" y1="640.64" x2="275.64" y2="640.64"/><polyline class="cls-3" points="276.66 640.64 280.66 640.64 276.66 640.64"/><line class="cls-5" x1="274.63" y1="640.64" x2="32.07" y2="640.64"/><polyline class="cls-3" points="59.76 780.93 55.76 780.93 59.76 780.93"/><line class="cls-6" x1="61.77" y1="780.93" x2="191.31" y2="780.93"/><polyline class="cls-3" points="192.31 780.93 196.31 780.93 192.31 780.93"/><line class="cls-6" x1="190.31" y1="780.93" x2="60.76" y2="780.93"/><polyline class="cls-3" points="314.75 640.64 310.75 640.64 314.75 640.64"/><line class="cls-7" x1="316.76" y1="640.64" x2="556.7" y2="640.64"/><polyline class="cls-3" points="557.71 640.64 561.71 640.64 557.71 640.64"/><line class="cls-7" x1="555.7" y1="640.64" x2="315.76" y2="640.64"/><polyline class="cls-3" points="371.18 780.93 367.18 780.93 371.18 780.93"/><line class="cls-8" x1="373.16" y1="780.93" x2="501.02" y2="780.93"/><polyline class="cls-3" points="502.01 780.93 506.01 780.93 502.01 780.93"/><line class="cls-8" x1="500.03" y1="780.93" x2="372.17" y2="780.93"/><polyline class="cls-3" points="163.32 337.16 159.32 337.16 163.32 337.16"/><line class="cls-9" x1="165.34" y1="337.16" x2="396.82" y2="337.16"/><polyline class="cls-3" points="397.83 337.16 401.83 337.16 397.83 337.16"/><line class="cls-9" x1="395.81" y1="337.16" x2="164.33" y2="337.16"/><polyline class="cls-3" points="632.03 337.16 628.03 337.16 632.03 337.16"/><line class="cls-10" x1="634.03" y1="337.16" x2="1002.9" y2="337.16"/><polyline class="cls-3" points="1003.9 337.16 1007.9 337.16 1003.9 337.16"/><line class="cls-10" x1="1001.9" y1="337.16" x2="633.03" y2="337.16"/><polyline class="cls-3" points="529.74 477.74 525.74 477.74 529.74 477.74"/><line class="cls-11" x1="531.73" y1="477.74" x2="1217.46" y2="477.74"/><polyline class="cls-3" points="1218.45 477.74 1222.45 477.74 1218.45 477.74"/><line class="cls-11" x1="1216.46" y1="477.74" x2="530.74" y2="477.74"/><polyline class="cls-3" points="590 640.64 586 640.64 590 640.64"/><line class="cls-12" x1="591.98" y1="640.64" x2="898.4" y2="640.64"/><polyline class="cls-3" points="899.39 640.64 903.39 640.64 899.39 640.64"/><line class="cls-12" x1="897.4" y1="640.64" x2="590.99" y2="640.64"/><polyline class="cls-3" points="647.34 780.93 643.34 780.93 647.34 780.93"/><line class="cls-13" x1="649.38" y1="780.93" x2="811.63" y2="780.93"/><polyline class="cls-3" points="812.65 780.93 816.65 780.93 812.65 780.93"/><line class="cls-13" x1="810.61" y1="780.93" x2="648.36" y2="780.93"/><polyline class="cls-3" points="941.34 640.64 937.34 640.64 941.34 640.64"/><line class="cls-14" x1="943.32" y1="640.64" x2="1248.42" y2="640.64"/><polyline class="cls-3" points="1249.41 640.64 1253.41 640.64 1249.41 640.64"/><line class="cls-14" x1="1247.43" y1="640.64" x2="942.33" y2="640.64"/><polyline class="cls-3" points="1026.74 780.93 1022.74 780.93 1026.74 780.93"/><line class="cls-15" x1="1028.79" y1="780.93" x2="1192.17" y2="780.93"/><polyline class="cls-3" points="1193.2 780.93 1197.2 780.93 1193.2 780.93"/><line class="cls-15" x1="1191.14" y1="780.93" x2="1027.77" y2="780.93"/><path class="cls-16" d="M303.53,610.87h0Z"/><path class="cls-16" d="M579.17,610.87h0Z"/><path class="cls-16" d="M193.51,315.69h0Z"/><path class="cls-16" d="M137.11,356.06h0Z"/><path class="cls-16" d="M98.12,403.58h0Z"/><path class="cls-16" d="M58,455.69h0Z"/><path class="cls-16" d="M31.09,507.23h0Z"/><path class="cls-16" d="M23.54,610.87h0Z"/><path class="cls-16" d="M30.66,663h0Z"/><path class="cls-16" d="M41.07,714.51h0Z"/><path class="cls-16" d="M50.34,762.32h0Z"/><path class="cls-16" d="M64.25,802.12h0Z"/><path class="cls-16" d="M317.54,663h0Z"/><path class="cls-16" d="M336,714.51h0Z"/><path class="cls-16" d="M356.22,762.32h0Z"/><path class="cls-16" d="M383.68,802.12h0Z"/><path class="cls-16" d="M657.21,315.69h0Z"/><path class="cls-16" d="M608.55,356.06h0Z"/><path class="cls-16" d="M572.88,403.58h0Z"/><path class="cls-16" d="M537.16,455.69h0Z"/><path class="cls-16" d="M514.67,507.23h0Z"/><path class="cls-16" d="M592.87,663h0Z"/><path class="cls-16" d="M612.26,714.51h0Z"/><path class="cls-16" d="M632.17,762.32h0Z"/><path class="cls-16" d="M660.49,802.12h0Z"/><path class="cls-16" d="M927.3,610.87h0Z"/><path class="cls-16" d="M947.46,663h0Z"/><path class="cls-16" d="M976.93,714.51h0Z"/><path class="cls-16" d="M1006.74,762.32h0Z"/><path class="cls-16" d="M1046.76,802.12h0Z"/><path class="cls-16" d="M20.94,559.05h0Z"/><path class="cls-16" d="M713.67,829.63c-38.08,0-53.18-130.87-53.18-130.87-16.53-57.83-17-139.71-17-139.71-2.32-66.14,29-155.47,29-155.47,29.78-124,74.72-114.19,74.72-114.19"/><path class="cls-16" d="M166.82,356.06s-26.48,32.49-39.22,63c0,0-32.64,40.95-46.67,88.19,0,0-7.73,22-7.73,52.1,0,0,1,77.59,2.51,103.65,0,0,3.86,86.53,4.72,99.34"/><path class="cls-16" d="M86.9,829s8.35,1.21,12.64-12.82c0,0,9.24-32.28,11.38-53.83l4.94-47.81L120,663s3.15-25.27,4-52.11l1.08-51.3s.21-43.61,14.17-81.83c0,0,15.89-41.23,26.41-56.26a275.11,275.11,0,0,1,32-65.42s35.84-64.6,98.12-66.37"/><path class="cls-16" d="M227.52,356.06s-13.24,27.84-17.1,47.52c0,0-5.23,21.48-10.67,32.5,0,0-8,21.47-12.31,41.66,0,0-3.15,7.58-6.3,29.49,0,0-3,21.9-3.86,51.82,0,0-2.87,78-11.74,103.93,0,0-8.33,30.92-11.68,51.53,0,0-10.88,45.38-12.63,47.81"/><path class="cls-16" d="M348.92,356.06s8.58,32.35,11.73,47.52c0,0,8,36.36,12,52.11,0,0,5.15,19.18,9.16,51.54,0,0,2.86,34.82,2.86,52.48,0,0-.28,40.85,1.15,51.16,0,0,3.43,43.23,5.44,52.11,0,0,5.72,36.93,7.44,51.53,0,0,5.73,42.09,6.87,47.81"/><path class="cls-16" d="M747.16,289.45s-64.41-4.68-120.53,66.61c0,0-18.61,20.61-36.36,62.7,0,0-33.21,46.09-43.23,88.47a220.63,220.63,0,0,0-7.16,51.82s-.57,52.1-8.3,81.59c0,0-9.49,40.37-16.91,58.12,0,0-18.31,119.75-78,130.88"/><path class="cls-16" d="M657.21,356.06s-14.89,22.33-29.18,64.7c0,0-20.87,37.22-30.89,86.47,0,0-15.46,64.7,4.87,133.41,0,0,11.17,43,17.46,54.69,0,0,12.89,53.25,22.62,67"/><path class="cls-16" d="M717.39,356.06s-12,56.68-14.31,99.63c0,0-8.47,56.4-7.82,104.22,0,0,1.52,125.11,5,154.6,0,0,2,39.22,2,47.81"/><path class="cls-16" d="M747.16,289.21s1.22,299.61-1.11,321.66c0,0-1.67,38.65-3,52.11,0,0-7.69,68.42-10.38,99.34,0,0-6.4,58.18-19,67.31"/><path class="cls-16" d="M777.23,356.06s18.32,102.21,20.33,151.17c0,0,6,101.06-10.17,155.75,0,0-19,75.87-23.62,99.34"/><path class="cls-16" d="M747.16,289.21s45.53-6.73,75.31,114.37c0,0,15.46,55,19.75,74.16,0,0,21.19,87-2.86,162.9,0,0-11.17,36.94-21.48,58.7,0,0-29.77,123.74-104.21,130.29"/><path class="cls-16" d="M838.21,356.06S853.48,383,867,422.77c0,0,26.15,52.39,30.73,84.46,0,0,24.63,93-39.22,189.24,0,0-13.9,34.91-34.64,65.85"/><path class="cls-16" d="M747.16,289.39s87.9-8.35,150.6,114.19a403.68,403.68,0,0,0,29.54,52.11s22.28,34,27.44,103.88c0,0-2,70.48,40.65,138.62,0,0,33.5,119.68,130.13,131.27"/><path class="cls-16" d="M747.16,289.14s133.43-7.52,225.9,114.44A129.93,129.93,0,0,0,994,430.21s61,55.54,64.42,128.84c0,0-1.14,41.51,5.73,81.59,0,0,8.87,49,12.59,73.87,0,0,17.76,111.18,48.82,115"/><path class="cls-16" d="M898.62,356.06s19.45,16.32,44.8,63c0,0,62,62.7,62.85,140.29,0,0-.28,77.88,29.21,139.72,0,0,10.3,43.52,21.47,63.27"/><path class="cls-16" d="M958.75,356.06S992,380.11,1022,419c0,0,87.61,63.85,87.9,140.29,0,0,3.43,161.77,7.44,203"/><path class="cls-16" d="M747.16,289.27s137-2.07,241.36,66.79c0,0,35.22,19.47,73.44,63.27,0,0,98.78,58.69,100.92,140,0,0-7.3,149.6-15.46,203,0,0-5.58,63.37-21.9,67.14"/><path class="cls-16" d="M1019.44,356.06s60.34,35.57,80.53,62.41c0,0,114.66,66.5,113.8,140.72,0,0,.65,72.29-19.54,135.85,0,0-9.87,51.68-16.75,67.28"/><path class="cls-16" d="M295.79,289.69s-12.12.52-24.36,26c0,0-10.63,23.9-13.63,40.37,0,0-6.55,25.37-8.05,37.29,0,0-4.41,28.34-6.34,36,0,0-3.22,12.49-5.26,26.38,0,0-5.58,35.4-6.87,51.54,0,0-2.47,23-2.47,51.82l-.54,23.9s-1.93,17.5-4.29,27.92c0,0-3.65,21.22-6.44,29.77,0,0-13.75,43.45-21.48,58.27,0,0-3,7.8-5.15,15.6,0,0-31.82,113-101.24,115.22"/><path class="cls-16" d="M288.5,356.06s-9.39,166.05-7.84,203.27c0,0-.32,55.83-16.28,81.31a361.44,361.44,0,0,1-27.7,56.69,359.42,359.42,0,0,1-34.64,65"/><path class="cls-16" d="M297.52,289.63s58.55-10.3,100.93,114c0,0,5.72,22.62,14.31,39.23,0,0,15.75,40.08,18.61,64.42a267.1,267.1,0,0,1,5.09,51.82l.21,270.59c-55.69-8.27-75.16-115.13-75.16-115.13-5.15-20.9-15.46-51.53-15.46-51.53-13.17-46.67-13.45-103.65-13.45-103.65,0-30.92-2.58-81.59-2.58-81.59L318,356.06c-7.44-72.73-22.17-66.37-22.17-66.37"/><path class="cls-16" d="M408.75,356.06s10.31,11.45,26.63,47.52c0,0,6.58,15.75,14,27.77,0,0,16,27.49,22.9,46.39,0,0,16.07,33.21,15.48,81.59,0,0,.56,34.07-3.74,81.31,0,0-8.59,60.41-10.31,73.87,0,0-5.15,40.66-7.73,49.25"/><path class="cls-17" d="M375.85,133.05,481,148.88l5,6.82-.88,7.48,21.12,4.18v10.11l5.72,2-8.14,70.6s-5.06,3.3-9,3.74l-65.32.66-2.2,2.64h-3.08l-2.42-2-5.71,4-5.28,5.72-3.74,7.26-.88,4.18-20.68,5-4.17-5.71,4.17-27.06-8.35-.66-4-5L374.75,227l-4.84-1.54-2,1.1-4.84-5.72Z"/><polygon class="cls-18" points="1179.28 791.71 1190.83 767.53 1256.52 660.7 1124.78 573.36 1109.63 597.54 1126.77 608.55 1058.92 717.18 1179.28 791.71"/><polygon class="cls-19" points="615.2 712.45 645.18 751.83 704.55 714.8 663.99 670.13 615.2 712.45"/><polygon class="cls-20" points="372.41 750.84 423.23 768.11 433.86 738.88 453.46 745.52 502.28 608.01 481.02 599.71 485.01 590.08 434.86 572.14 372.41 750.84"/><polygon class="cls-21" points="615.38 850.84 695.46 842.73 700.87 892.51 759.85 887.1 763.63 930.38 627.28 942.28 615.38 850.84"/><polygon class="cls-22" points="411.16 785.19 392.56 784.19 393.89 773.05 395.94 771.46 411.76 772.8 411.16 785.19"/><polygon class="cls-23" points="149.82 383.67 134.82 413.37 217.09 437.43 278.13 318.02 204.54 278.45 181.67 322.26 230.24 349.14 200.98 405.13 159.1 392.65 161.77 388.19 149.82 383.67"/><polygon class="cls-24" points="953.64 517.11 983.27 543.74 1006.91 522.54 1027.02 540.21 992.37 572.14 974.43 555.29 976.06 553.66 966.01 544.15 944.54 567.79 898.61 524.85 911.11 511.26 937.2 535.45 953.64 517.11"/><polygon class="cls-25" points="891.97 273.65 934.5 240.3 953.17 264.16 983.77 240.3 966.94 216.43 999.07 194.09 990.19 159.21 969.39 133.51 868.41 233.87 869.94 249.78 891.97 273.65"/><polygon class="cls-26" points="758.02 533.47 778.74 523.79 794.2 516.53 801.36 514.01 801.36 512.96 820.08 508.86 824.81 529.47 757.39 566.07 758.02 533.47"/><text class="cls-27" transform="translate(99.33 447.67)">데이터 삭제 실패<tspan x="4.51" y="180">Del</tspan><tspan class="cls-28" x="238.8" y="180">e</tspan><tspan x="321.9" y="180">tion </tspan><tspan class="cls-29" x="643.8" y="180">f</tspan><tspan x="692.25" y="180">ailed</tspan></text></svg>